<?xml version="1.0" standalone="no"?>
<!DOCTYPE svg PUBLIC "-//W3C//DTD SVG 20010904//EN"
 "http://www.w3.org/TR/2001/REC-SVG-20010904/DTD/svg10.dtd">
<svg version="1.0" xmlns="http://www.w3.org/2000/svg"
 width="534.000000pt" height="567.000000pt" viewBox="0 0 534.000000 567.000000"
 preserveAspectRatio="xMidYMid meet">

<g transform="translate(0.000000,567.000000) scale(0.100000,-0.100000)"
fill="#000000" stroke="none">
<path d="M2530 4893 c-47 -6 -63 -23 -23 -23 47 0 238 -38 313 -62 127 -40
200 -101 200 -166 0 -74 -53 -143 -190 -248 -68 -52 -219 -149 -280 -179 -19
-10 -38 -23 -42 -29 -4 -6 -9 -8 -13 -5 -6 6 16 28 150 147 172 152 235 236
235 310 0 50 -69 114 -165 151 -88 34 -134 42 -68 11 52 -25 111 -92 119 -137
10 -54 -19 -112 -90 -181 -35 -34 -67 -62 -71 -62 -4 0 -24 -13 -44 -29 -41
-32 -218 -126 -324 -172 -164 -71 -207 -87 -207 -79 0 5 25 20 56 35 146 69
402 242 469 317 88 98 109 167 73 238 -46 90 -198 153 -373 154 -86 1 -93 -1
-164 -38 -257 -136 -393 -373 -445 -776 -8 -63 -22 -223 -31 -355 -27 -433
-36 -528 -61 -670 -55 -319 -154 -545 -315 -724 -86 -96 -103 -113 -124 -122
-15 -6 -8 -8 25 -7 40 2 73 12 194 61 83 34 276 136 466 247 281 165 349 181
280 67 -44 -72 -71 -98 -176 -177 -102 -76 -181 -153 -222 -217 -15 -24 -32
-43 -38 -43 -6 0 -54 -18 -105 -40 -175 -75 -298 -140 -339 -176 -22 -20 -40
-33 -40 -29 0 12 -82 -66 -126 -120 -84 -102 -160 -248 -227 -440 -52 -149
-132 -456 -137 -525 0 -8 -3 -51 -6 -95 -11 -162 45 -315 150 -411 84 -76 190
-126 327 -154 39 -7 461 -11 1430 -12 1278 -2 1380 -1 1456 16 238 51 363 152
429 346 25 73 25 284 0 425 -75 433 -132 639 -224 800 -97 171 -204 263 -462
399 -41 21 -92 50 -112 63 -21 12 -41 23 -46 23 -7 0 -150 85 -255 153 -45 29
-96 91 -170 204 -49 76 -33 85 64 36 41 -20 124 -68 184 -106 61 -38 132 -83
158 -98 26 -16 53 -34 60 -40 24 -21 233 -153 287 -181 30 -16 71 -39 90 -51
35 -22 35 -21 -15 42 -54 68 -75 99 -101 146 -9 17 -22 37 -29 45 -14 16 -81
147 -113 220 -43 98 -122 344 -161 500 -40 163 -64 281 -136 675 -20 110 -47
243 -60 295 -13 52 -27 109 -31 125 -4 17 -9 39 -11 50 -1 11 -7 29 -12 40 -5
11 -15 38 -22 60 -12 39 -51 130 -91 211 -81 164 -240 294 -418 342 -76 21
-235 34 -300 25z m606 -2599 c28 -78 37 -120 41 -196 6 -111 2 -122 -93 -223
-252 -270 -469 -895 -499 -1440 -8 -135 -12 -151 -29 -105 -7 19 -25 67 -40
105 -249 645 -417 1321 -416 1668 1 100 21 213 43 235 15 15 19 14 45 -11 16
-16 39 -51 52 -80 113 -258 177 -354 246 -377 128 -43 316 106 522 410 27 41
56 87 63 103 7 16 16 24 21 19 5 -5 25 -54 44 -108z"/>
</g>
</svg>
