<?xml version="1.0" standalone="no"?>
<!DOCTYPE svg PUBLIC "-//W3C//DTD SVG 20010904//EN"
 "http://www.w3.org/TR/2001/REC-SVG-20010904/DTD/svg10.dtd">
<svg version="1.0" xmlns="http://www.w3.org/2000/svg"
 width="534.000000pt" height="574.000000pt" viewBox="0 0 534.000000 574.000000"
 preserveAspectRatio="xMidYMid meet">

<g transform="translate(0.000000,574.000000) scale(0.100000,-0.100000)"
fill="#000000" stroke="none">
<path d="M2675 5150 c-171 -20 -384 -122 -493 -234 -86 -89 -112 -137 -37 -66
33 30 65 62 72 70 7 8 13 11 13 5 0 -7 3 -7 8 0 31 42 189 120 299 147 109 27
274 28 413 4 101 -17 170 -35 170 -45 0 -3 -82 -4 -182 -3 -227 5 -324 -9
-496 -68 -75 -26 -76 -35 -2 -19 34 7 112 9 214 6 130 -4 179 -10 256 -31 52
-14 106 -26 121 -26 14 0 29 -4 35 -8 5 -5 32 -17 59 -27 84 -30 79 -38 -20
-31 -262 20 -364 23 -500 15 -298 -16 -473 -77 -591 -206 -23 -25 -47 -61 -53
-81 -32 -99 -23 -359 20 -541 11 -46 18 -89 15 -97 -3 -7 -24 -14 -48 -16
l-43 -3 2 -98 c5 -206 52 -365 115 -391 18 -8 44 -12 58 -9 23 4 26 0 41 -59
9 -35 24 -88 33 -118 45 -151 48 -171 42 -320 -3 -80 -8 -156 -11 -170 -6 -27
-7 -26 116 -157 32 -35 83 -98 113 -140 63 -91 105 -133 161 -161 22 -12 33
-21 25 -22 -177 -10 -228 -29 -264 -98 -27 -53 -21 -99 28 -184 50 -88 76
-149 76 -179 0 -22 -38 -120 -87 -229 -50 -108 -93 -208 -93 -215 0 -4 -7 -21
-14 -38 -37 -80 -148 -444 -148 -484 -1 -28 -26 -52 -32 -32 -2 8 -12 66 -23
129 -16 103 -18 184 -18 787 0 369 -3 674 -7 678 -12 12 -646 -310 -789 -401
-156 -99 -288 -200 -334 -257 -16 -21 -38 -48 -48 -60 -48 -57 -79 -156 -92
-292 -4 -38 -13 -124 -21 -190 -33 -264 -54 -462 -54 -504 0 -57 25 -151 53
-197 30 -49 121 -143 177 -180 113 -76 252 -125 435 -154 43 -7 499 -11 1354
-11 1231 0 1292 1 1387 20 122 23 205 51 309 102 129 63 221 148 269 249 39
81 46 186 22 312 -9 45 -23 128 -31 183 -8 55 -26 168 -40 250 -13 83 -29 179
-35 215 -21 132 -57 185 -220 330 -58 51 -393 279 -509 347 -45 26 -222 139
-330 212 -30 20 -85 65 -123 101 -51 49 -68 60 -68 46 0 -70 -147 -560 -216
-723 -8 -17 -14 -38 -14 -47 0 -8 -9 -35 -19 -58 -47 -102 -187 -523 -195
-586 -2 -15 -6 -34 -9 -42 -11 -28 -35 -135 -42 -185 -8 -56 -24 -94 -25 -60
0 11 -7 101 -15 200 -30 374 -37 505 -33 685 l4 185 52 99 c31 59 52 112 52
131 0 44 -30 72 -87 81 -55 7 -113 29 -113 41 0 5 19 19 43 31 23 12 54 30 68
40 14 9 53 34 85 56 32 21 61 42 64 45 3 3 46 37 95 75 50 37 119 93 154 124
121 106 110 86 104 184 -7 104 3 135 113 363 39 83 78 174 85 204 15 58 45 85
72 63 11 -9 17 -8 29 6 40 45 68 124 147 419 11 42 -3 60 -52 66 -21 3 -41 7
-44 11 -3 3 2 36 10 73 21 89 26 133 37 284 14 194 -9 360 -65 484 -14 30 -25
56 -25 59 0 11 -120 154 -149 179 -75 63 -214 114 -395 146 -83 15 -288 21
-371 11z"/>
</g>
</svg>
