<?xml version="1.0" standalone="no"?>
<!DOCTYPE svg PUBLIC "-//W3C//DTD SVG 20010904//EN"
 "http://www.w3.org/TR/2001/REC-SVG-20010904/DTD/svg10.dtd">
<svg version="1.0" xmlns="http://www.w3.org/2000/svg"
 width="561.000000pt" height="157.000000pt" viewBox="0 0 561.000000 157.000000"
 preserveAspectRatio="xMidYMid meet">
<metadata>
Created by potrace 1.15, written by Peter Selinger 2001-2017
</metadata>
<g transform="translate(0.000000,157.000000) scale(0.100000,-0.100000)"
fill="#343A40" stroke="none">
<path d="M0 785 l0 -785 2805 0 2805 0 0 785 0 785 -2805 0 -2805 0 0 -785z
m1650 596 c137 -45 200 -124 200 -252 0 -37 -7 -88 -15 -112 -14 -43 -14 -47
10 -98 68 -150 29 -308 -117 -464 -232 -248 -666 -375 -964 -281 -395 125
-490 576 -193 910 49 55 169 148 242 186 26 14 47 28 47 32 0 5 -47 8 -105 8
-107 0 -131 10 -77 31 15 7 97 13 182 16 92 2 198 12 260 23 148 27 158 28
320 25 116 -2 158 -7 210 -24z m1143 -394 c33 -21 34 -41 5 -61 -27 -19 -81
-20 -211 -4 -159 20 -332 -16 -404 -84 -27 -26 -31 -82 -7 -116 69 -99 387
-132 551 -57 79 36 103 67 103 130 0 72 21 96 86 102 35 4 60 0 82 -11 28 -14
32 -22 32 -56 0 -21 -5 -61 -10 -87 -6 -26 -14 -94 -18 -149 -10 -119 -23
-143 -108 -199 -208 -138 -586 -187 -763 -98 -71 36 -80 66 -27 88 51 21 87
19 174 -12 72 -26 88 -28 237 -28 l160 0 70 35 c93 47 107 74 98 188 -5 71 -8
82 -22 76 -269 -116 -585 -136 -731 -46 -50 31 -90 83 -90 119 0 111 191 231
443 279 104 19 315 14 350 -9z m1205 8 c168 -40 236 -141 163 -242 -78 -108
-315 -198 -551 -210 -137 -6 -211 5 -297 47 -122 60 -138 161 -40 247 80 70
221 130 374 157 105 19 272 19 351 1z m1095 -8 c33 -21 34 -41 5 -61 -27 -19
-81 -20 -210 -4 -121 15 -243 1 -326 -37 -78 -36 -102 -60 -102 -105 0 -46 21
-75 73 -102 140 -71 366 -75 505 -7 72 35 92 65 92 137 0 36 5 54 20 67 28 25
109 31 148 11 28 -15 32 -21 32 -59 0 -23 -5 -60 -10 -82 -5 -22 -13 -84 -16
-137 -8 -119 -27 -156 -104 -209 -202 -140 -590 -191 -769 -102 -71 36 -80 66
-27 88 50 21 91 18 171 -11 94 -35 310 -46 401 -19 83 23 139 58 157 98 23 47
13 202 -12 191 -160 -65 -272 -92 -411 -101 -261 -15 -434 74 -405 208 21 93
219 203 438 245 104 19 315 14 350 -9z"/>
<path d="M1316 1359 c-105 -13 -123 -24 -52 -33 150 -17 327 -98 425 -193 71
-68 81 -68 81 2 0 105 -54 181 -150 209 -70 21 -203 27 -304 15z"/>
<path d="M990 1276 c-167 -62 -340 -204 -426 -351 -71 -121 -100 -276 -75
-393 24 -114 100 -221 195 -277 193 -113 587 -45 861 150 161 115 258 277 240
406 -4 27 -10 49 -13 49 -4 -1 -32 -39 -62 -87 -59 -93 -212 -255 -300 -321
-121 -89 -216 -115 -256 -71 -26 29 -22 109 10 219 13 47 23 86 22 87 -2 2
-42 -42 -91 -98 -91 -104 -161 -167 -226 -200 -51 -26 -75 -24 -95 6 -56 85
112 502 251 623 19 18 41 32 47 32 6 0 31 10 55 22 43 22 46 22 121 6 70 -14
79 -14 104 0 37 21 78 4 78 -33 0 -31 -46 -124 -64 -131 -17 -6 -68 -146 -101
-278 -62 -244 -4 -267 185 -70 95 100 211 256 254 342 l27 53 -31 43 c-95 139
-278 238 -498 271 -116 18 -165 18 -212 1z"/>
<path d="M1133 1020 c-69 -28 -255 -371 -270 -499 -6 -57 4 -68 45 -47 38 20
190 172 247 248 49 65 145 249 145 278 0 12 -11 19 -37 24 -51 8 -104 7 -130
-4z"/>
<path d="M3583 919 c-85 -14 -159 -47 -192 -85 -38 -42 -39 -73 -6 -112 105
-125 489 -133 615 -13 43 41 49 65 26 109 -42 81 -263 131 -443 101z"/>
</g>
</svg>
